{"title":"The.Only.Way.Is.Essex.S08E05.PDTV.x264-W33D","uid":8241247,"size":185932224,"categoryP":"video","categoryS":"tv_shows","magnet":"?xt=urn:btih:82003b4e06e60a48b05b328c7162e28362ea51bf&amp;dn=The.Only.Way.Is.Essex.S08E05.PDTV.x264-W33D&amp;tr=udp%3A%2F%2Ftracker.openbittorrent.com%3A80&amp;tr=udp%3A%2F%2Fopen.demonii.com%3A1337&amp;tr=udp%3A%2F%2Ftracker.coppersurfer.tk%3A6969&amp;tr=udp%3A%2F%2Fexodus.desync.com%3A6969","seeders":1,"leechers":1,"uploader":"shane1989","files":1,"time":1362961837,"description":"Season 8 Episode 5 of 10\nReality programme following a group of people in Essex, with each episode filmed just a few days before transmission\n\nThe Only Way Is Essex is a British BAFTA award-winning reality television show based in Essex, England.\nIt shows &quot;real people in modified situations, saying unscripted lines but in a structured way.&quot;\nThe show is filmed just a few days in advance.\n\n\n\n\nGeneral\nComplete name   : The.Only.Way.Is.Essex.S08E05.PDTV.x264-W33D.mp4\nFormat                                   : MPEG-4\nFormat profile                           : Base Media\nCodec ID                                 : isom\nFile size                                : 177 MiB\nDuration                                 : 33mn 0s\nOverall bit rate mode                    : Variable\nOverall bit rate                         : 751 Kbps\nWriting application                      : Lavf52.64.2\n\nVideo\nID                                       : 1\nFormat                                   : AVC\nFormat/Info                              : Advanced Video Codec\nFormat profile                           : &lt;a class=&quot;__cf_email__&quot; href=&quot;/cdn-cgi/l/email-protection&quot; data-cfemail=&quot;0a42636d624a4639243b&quot;&gt;[email&amp;#160;protected]&lt;/a&gt;&lt;script cf-hash='f9e31' type=&quot;text/javascript&quot;&gt;\n/* &lt;![CDATA[ */!function(){try{var t=&quot;currentScript&quot;in document?document.currentScript:function(){for(var t=document.getElementsByTagName(&quot;script&quot;),e=t.length;e--;)if(t[e].getAttribute(&quot;cf-hash&quot;))return t[e]}();if(t&amp;&amp;t.previousSibling){var e,r,n,i,c=t.previousSibling,a=c.getAttribute(&quot;data-cfemail&quot;);if(a){for(e=&quot;&quot;,r=parseInt(a.substr(0,2),16),n=2;a.length-n;n+=2)i=parseInt(a.substr(n,2),16)^r,e+=String.fromCharCode(i);e=document.createTextNode(e),c.parentNode.replaceChild(e,c)}}}catch(u){}}();/* ]]&gt; */&lt;/script&gt;\nFormat settings, CABAC                   : Yes\nFormat settings, ReFrames                : 4 frames\nCodec ID                                 : avc1\nCodec ID/Info                            : Advanced Video Coding\nDuration                                 : 33mn 0s\nBit rate                                 : 684 Kbps\nWidth                                    : 704 pixels\nHeight                                   : 400 pixels\nDisplay aspect ratio                     : 16:9\nFrame rate mode                          : Constant\nFrame rate                               : 25.000 fps\nColor space                              : YUV\nChroma subsampling                       : 4:2:0\nBit depth                                : 8 bits\nScan type                                : Progressive\nBits/(Pixel*Frame)                       : 0.097\nStream size                              : 161 MiB (91%)\n\nAudio\nID                                       : 2\nFormat                                   : AAC\nFormat/Info                              : Advanced Audio Codec\nFormat profile                           : LC\nCodec ID                                 : 40\nDuration                                 : 33mn 0s\nDuration_LastFrame                       : -21ms\nBit rate mode                            : Variable\nBit rate                                 : 61.4 Kbps\nChannel(s)                               : 2 channels\nChannel positions                        : Front: L R\nSampling rate                            : 48.0 KHz\nCompression mode                         : Lossy\nDelay relative to video                  : 200ms\nStream size                              : 14.5 MiB\n\n\n\n\n","torrent":{"xt":"urn:btih:82003b4e06e60a48b05b328c7162e28362ea51bf","amp;dn":"The.Only.Way.Is.Essex.S08E05.PDTV.x264-W33D","amp;tr":["udp%3A%2F%2Ftracker.openbittorrent.com%3A80","udp%3A%2F%2Fopen.demonii.com%3A1337","udp%3A%2F%2Ftracker.coppersurfer.tk%3A6969","udp%3A%2F%2Fexodus.desync.com%3A6969"],"infoHash":"82003b4e06e60a48b05b328c7162e28362ea51bf","infoHashBuffer":{"type":"Buffer","data":[130,0,59,78,6,230,10,72,176,91,50,140,113,98,226,131,98,234,81,191]},"announce":[],"urlList":[]}}